# xmcd
#
# Track frame offsets: 
#        150
#        13755
#        30300
#        47785
#        62030
#        81245
#        98207
#        114915
#        129332
#        145865
#        161940
#        181382
#        199860
#        217780
#        236507
#        258452
#        280427
#        299737
#        317625
#
# Disc length: 4489 seconds
#
# Revision: 0
# Processed by: cddbd v1.4PL0 Copyright (c) Steve Scherf et al.
# Submitted via: ExactAudioCopy v0.90b3
#
DISCID=18118713
DTITLE=Matraca Berg - The Masters
DYEAR=1900
DGENRE=Country
TTITLE0=The Things You Left Undone
TTITLE1=I Got It Bad
TTITLE2=Lying To The Moon
TTITLE3=I Must Have Been Crazy
TTITLE4=You Are The Storm
TTITLE5=Calico Plains
TTITLE6=Appalachain Rain
TTITLE7=Baby, Walk On
TTITLE8=Alice In The Looking Glass
TTITLE9=Dancin' On The Wire
TTITLE10=Slow Poison
TTITLE11=Tall Drink Of Water
TTITLE12=Let's Face It
TTITLE13=I Won't Let Go
TTITLE14=Jolene
TTITLE15=Guns In My Head
TTITLE16=Waiting For The Sky To Fall
TTITLE17=Come To Momma
TTITLE18=River Of No Return
EXTD=
EXTT0=
EXTT1=
EXTT2=
EXTT3=
EXTT4=
EXTT5=
EXTT6=
EXTT7=
EXTT8=
EXTT9=
EXTT10=
EXTT11=
EXTT12=
EXTT13=
EXTT14=
EXTT15=
EXTT16=
EXTT17=
EXTT18=
PLAYORDER=
